<?xml version="1.0" standalone="no"?>
<!DOCTYPE svg PUBLIC "-//W3C//DTD SVG 20010904//EN"
 "http://www.w3.org/TR/2001/REC-SVG-20010904/DTD/svg10.dtd">
<svg version="1.0" xmlns="http://www.w3.org/2000/svg"
 width="500.000000pt" height="500.000000pt" viewBox="0 0 500.000000 500.000000"
 preserveAspectRatio="xMidYMid meet">

<g transform="translate(0.000000,500.000000) scale(0.100000,-0.100000)"
fill="#000000" stroke="none">
<path d="M0 2500 l0 -2500 2500 0 2500 0 0 2500 0 2500 -2500 0 -2500 0 0
-2500z m3456 1601 c3 -11 8 -10 24 4 11 10 20 23 20 30 0 16 38 50 46 42 4 -4
-1 -9 -10 -13 -23 -9 -20 -24 7 -25 20 -2 20 -2 -3 -7 -23 -4 -24 -5 -5 -13
18 -7 18 -8 2 -8 -10 -1 -16 -5 -12 -11 6 -10 51 5 75 27 13 12 12 14 -8 20
-18 4 -20 8 -10 14 25 16 39 10 34 -15 -3 -14 2 -30 10 -37 16 -13 19 -89 4
-89 -5 0 -10 11 -10 25 0 19 -4 23 -17 19 -17 -5 -17 -5 0 6 30 19 20 33 -19
27 -41 -7 -64 -23 -64 -44 0 -13 3 -13 15 -3 27 22 16 0 -12 -24 -21 -19 -27
-31 -25 -62 3 -79 6 -93 20 -82 18 16 15 4 -7 -21 -20 -23 -41 -100 -41 -148
0 -26 1 -26 15 -7 15 19 15 19 8 -1 -5 -16 2 -13 31 13 51 44 58 34 9 -12 -22
-21 -30 -33 -19 -29 14 5 17 3 11 -6 -6 -10 -3 -11 13 -2 11 6 40 11 64 11 24
0 55 7 68 16 l25 16 -22 -20 c-12 -11 -45 -22 -73 -26 -61 -8 -80 -15 -80 -29
0 -6 26 -8 75 -4 83 6 131 27 154 69 14 24 13 27 -20 61 -19 19 -48 39 -64 43
-17 4 -34 9 -40 13 -17 10 -29 8 -47 -7 -12 -10 -18 -11 -18 -4 0 6 12 19 26
29 l26 17 -27 24 c-23 19 -26 26 -14 33 16 11 82 2 119 -15 14 -6 40 -34 58
-61 30 -44 33 -56 29 -99 -3 -40 -11 -55 -36 -78 -37 -33 -38 -38 -8 -38 13 0
37 15 56 34 54 56 164 72 244 35 34 -16 34 -25 -1 -32 -15 -3 -41 -18 -56 -34
l-28 -28 44 -5 c67 -8 134 -60 77 -60 -11 0 -42 -9 -69 -21 -37 -16 -47 -25
-43 -37 6 -15 4 -15 -14 1 -19 16 -20 16 -33 -8 -17 -31 -24 -26 -11 7 8 22 6
27 -14 36 -19 9 -24 7 -34 -11 l-12 -22 5 23 c2 13 -1 22 -9 22 -16 0 -25 -58
-21 -133 4 -69 21 -95 31 -48 10 46 23 47 15 1 l-7 -39 48 41 c38 31 49 48 49
70 0 15 5 28 10 28 18 0 10 -53 -12 -77 l-22 -23 32 11 c45 16 69 6 130 -50
44 -41 52 -54 51 -83 l-1 -33 -7 30 c-5 24 -14 32 -46 41 -35 11 -36 13 -12
13 l27 1 -39 35 c-24 22 -49 35 -65 35 -31 0 -126 -46 -126 -60 0 -6 17 -11
38 -11 l37 -2 -35 -6 c-28 -5 -31 -8 -17 -14 10 -4 28 -7 40 -7 12 0 29 -5 37
-10 10 -6 3 -8 -25 -4 l-40 5 39 -22 c22 -11 60 -25 85 -29 46 -8 46 -8 9 -9
-21 0 -62 10 -93 25 -31 14 -61 24 -67 22 -16 -6 145 -98 169 -98 12 0 33 14
48 31 29 35 43 33 24 -2 -10 -19 -9 -24 2 -27 18 -6 109 -99 109 -112 0 -15
-96 -12 -134 4 l-33 14 19 -47 c14 -31 32 -54 58 -70 23 -14 50 -44 65 -74 24
-43 26 -54 18 -91 l-9 -41 -17 32 c-9 17 -32 48 -52 68 -19 21 -40 56 -46 79
-6 23 -20 63 -32 89 -19 44 -22 47 -31 28 -6 -15 -3 -34 13 -70 29 -68 27 -99
-10 -149 -36 -49 -54 -45 -65 16 -6 31 -2 51 24 121 4 10 1 12 -8 6 -7 -4 -11
-4 -8 1 39 81 41 88 27 129 -8 22 -24 45 -37 51 -12 6 -33 21 -46 33 -28 26
-40 27 -26 2 12 -23 12 -107 1 -136 -5 -12 -7 7 -4 45 3 47 1 70 -10 84 -13
18 -14 17 -11 -15 l4 -34 -10 33 c-13 40 -26 41 -34 1 -9 -47 -7 -88 5 -112
21 -40 80 -107 94 -107 15 0 19 10 34 90 9 45 9 44 8 -17 -1 -35 -6 -63 -10
-63 -5 0 -5 -4 -2 -10 4 -6 -6 -10 -23 -10 -24 0 -39 11 -76 56 -25 31 -46 61
-46 67 0 6 -13 -3 -29 -20 -28 -31 -66 -48 -93 -41 -9 2 -4 13 16 33 22 24 26
25 17 8 -10 -19 -9 -23 3 -23 23 0 55 40 65 80 26 105 34 151 28 157 -4 3 -7
-5 -7 -19 0 -14 -7 -31 -15 -38 -8 -7 -15 -21 -15 -31 0 -10 -4 -20 -9 -24 -6
-3 -6 7 0 27 12 44 12 48 -8 41 -11 -4 -14 -3 -9 5 6 9 1 9 -21 0 -42 -18 -92
-68 -102 -103 -5 -16 -10 -22 -10 -12 -2 39 61 116 120 148 11 5 19 14 19 20
0 18 -61 -1 -107 -32 -64 -44 -83 -74 -82 -128 2 -77 10 -95 49 -101 32 -5 33
-6 12 -14 -41 -14 -69 15 -77 79 -9 67 12 123 58 159 l29 23 -45 7 c-25 4 -62
18 -82 32 -33 22 -38 23 -58 9 -12 -8 -36 -15 -54 -15 -26 0 -33 4 -33 19 0
11 4 22 9 25 5 4 7 -4 3 -16 -5 -19 -2 -21 26 -15 46 9 78 33 96 72 15 31 15
41 -1 124 -19 97 -36 124 -26 41 4 -35 2 -50 -6 -50 -7 0 -9 5 -6 11 4 6 4 27
0 47 -6 31 -9 34 -15 17 -5 -11 -9 -47 -9 -80 -1 -33 -5 -65 -9 -72 -4 -6 -5
25 -3 69 2 52 0 78 -7 74 -5 -3 -13 1 -16 10 -3 8 -2 13 3 10 5 -3 14 1 20 8
7 8 8 17 3 20 -13 8 -120 -80 -142 -117 -23 -37 -26 -61 -5 -33 8 11 15 16 15
10 -1 -16 -27 -44 -34 -37 -4 4 -4 0 0 -10 3 -9 10 -14 15 -11 5 3 6 -2 2 -12
-4 -11 6 -27 33 -51 l39 -35 -50 34 c-48 33 -50 37 -50 80 l0 45 -35 -9 c-19
-4 -73 -5 -119 -1 -68 5 -80 8 -64 17 11 6 37 25 58 43 l37 31 -30 16 c-17 9
-34 21 -38 28 -11 17 -23 91 -14 81 5 -4 10 -21 12 -37 8 -77 135 -97 246 -39
63 32 84 30 35 -5 -37 -25 -88 -42 -130 -42 -39 0 -99 -28 -127 -59 l-19 -21
86 0 c78 0 88 2 117 26 35 30 34 39 -2 25 -44 -17 -131 -41 -125 -35 3 4 36
17 72 30 86 30 175 83 168 100 -3 8 3 17 13 21 15 6 14 8 -10 14 -16 5 -37 4
-47 -1 -11 -6 -20 -7 -24 -1 -3 6 -23 2 -48 -9 -44 -21 -103 -26 -126 -11 -8
5 4 7 32 4 35 -4 57 0 102 22 44 20 66 25 94 21 29 -5 32 -4 18 5 -11 6 -40 8
-70 5 -33 -4 -43 -3 -27 3 45 14 100 20 105 10 12 -19 26 -9 15 12 -7 11 -18
18 -25 15 -8 -3 -17 0 -21 6 -4 7 -9 6 -14 -2 -5 -9 -26 -1 -74 28 -81 49
-130 59 -179 39 -29 -13 -57 -42 -57 -59 0 -2 17 -3 38 -1 39 3 35 -1 -11 -11
-15 -4 -26 -10 -23 -15 10 -15 -62 -72 -109 -87 -27 -8 -50 -13 -51 -11 -4 3
23 84 37 109 8 14 6 18 -8 18 -36 0 -62 -13 -68 -31 -10 -29 -58 -49 -120 -49
l-56 0 46 40 c36 31 54 40 83 40 20 0 66 3 102 6 l65 6 0 42 c1 22 5 50 10 61
5 12 -11 3 -43 -24 -29 -25 -54 -42 -57 -39 -6 6 66 101 85 113 5 3 10 11 10
16 0 6 -25 -8 -57 -30 -31 -23 -63 -41 -72 -41 -9 0 -2 7 14 16 17 8 39 24 50
34 11 10 36 28 55 40 28 17 30 20 10 15 -14 -4 -37 -15 -52 -26 -15 -10 -31
-19 -35 -19 -4 0 9 12 30 27 27 19 34 29 25 35 -9 5 -7 8 7 9 12 0 4 6 -20 15
-37 14 -155 17 -153 4 1 -3 -2 -13 -5 -22 -4 -10 -9 -25 -12 -33 -2 -9 -25
-24 -51 -35 -55 -24 -54 -24 -54 -2 0 16 6 28 38 81 11 18 10 21 -2 21 -8 0
-16 -10 -18 -22 -2 -15 -18 -30 -47 -45 -24 -12 -52 -30 -62 -39 -18 -16 -19
-16 -19 5 0 12 19 42 41 66 l42 45 -46 0 c-40 0 -45 -2 -40 -19 3 -13 -4 -28
-20 -43 -35 -33 -97 -69 -97 -57 0 13 29 69 36 69 2 0 0 -9 -6 -20 -13 -25 -4
-25 38 0 17 11 32 27 32 37 0 14 -5 12 -27 -8 l-27 -24 18 28 18 29 -34 -7
c-18 -4 -44 -16 -57 -26 -25 -20 -95 -26 -105 -10 -8 12 66 41 107 42 39 1 92
16 63 18 -19 1 -86 65 -86 82 0 27 99 -7 137 -47 27 -29 36 -33 63 -28 l31 7
-24 26 c-28 30 -49 66 -41 73 11 12 110 -49 129 -79 18 -30 24 -32 74 -33 l54
0 -44 31 c-58 41 -79 66 -79 95 0 13 3 24 6 24 21 0 87 -62 107 -100 23 -44
25 -45 73 -46 27 -1 51 -3 54 -4 3 -1 13 -3 23 -5 18 -3 18 -3 0 17 -25 28
-50 40 -58 28 -4 -6 -3 -10 2 -9 4 1 15 1 23 0 13 -1 13 -2 0 -11 -16 -10 -39
6 -72 53 l-20 28 59 -32 c32 -17 64 -36 71 -41 8 -7 7 -1 -3 18 -35 68 -7 145
53 143 26 -1 26 -1 -6 -10 -59 -17 -65 -78 -15 -152 28 -41 46 -43 19 -3 -9
14 -16 31 -16 38 1 7 8 1 16 -14 20 -37 27 -35 20 5 l-6 32 13 -32 c19 -49 24
-48 36 6 7 34 7 60 1 78 -10 27 -9 27 6 8 10 -13 14 -35 12 -61 l-3 -42 33 29
c49 44 63 38 38 -16 -12 -25 -23 -40 -25 -34 -1 5 -9 2 -17 -8 -13 -16 -13
-15 -3 9 7 15 16 25 22 21 6 -3 7 -1 3 5 -4 7 -2 12 5 12 7 0 9 3 6 7 -9 9
-46 -26 -63 -60 -8 -15 -19 -25 -24 -22 -14 9 -12 -9 2 -23 8 -8 9 -12 1 -12
-6 0 -9 -9 -6 -20 9 -33 22 -23 19 15 -3 32 5 47 27 51 4 1 8 2 10 3 1 1 27 4
57 7 38 3 62 0 74 -9 15 -11 16 -16 6 -22 -8 -5 -11 -4 -6 3 12 20 -33 23 -91
6 -55 -17 -57 -18 -28 -25 l30 -7 -30 -1 c-22 -1 -26 -4 -16 -10 11 -7 10 -10
-5 -13 -15 -4 -12 -8 16 -20 19 -8 41 -22 49 -31 18 -23 66 -23 57 -1 -3 9 -6
20 -6 25 0 5 -8 10 -17 10 -15 1 -16 2 -2 6 9 2 20 13 25 24 7 15 9 10 11 -25
2 -50 20 -91 64 -141 33 -38 52 -46 42 -17 -7 18 -5 17 17 -12 13 -18 13 -19
0 -11 -9 5 -12 5 -7 -1 5 -5 12 -8 15 -7 4 1 13 -4 21 -10 17 -15 -13 46 -40
82 -11 13 -19 29 -19 35 0 10 13 -7 68 -93 l24 -36 -5 35 -6 35 14 -30 13 -30
7 40 c4 22 10 52 15 67 7 23 4 33 -22 63 -21 23 -41 35 -57 35 -14 0 -38 6
-53 14 -24 13 -26 12 -21 -2 4 -15 3 -15 -6 -2 -6 8 -11 23 -11 32 0 9 -5 18
-12 20 -26 9 6 28 48 28 52 0 76 -10 123 -54 26 -24 32 -26 26 -11 -4 11 -12
34 -17 50 -6 17 -24 43 -42 58 l-31 28 28 -10 27 -11 -4 68 c-2 37 -2 54 1 37
2 -16 6 -36 9 -44z m104 -87 c-25 -15 -25 -15 13 -11 41 3 50 -9 13 -19 -25
-6 -66 10 -66 26 0 7 22 15 55 18 6 1 -1 -5 -15 -14z m90 -21 c0 -8 -5 -13
-12 -11 -18 6 -21 25 -3 25 8 0 15 -7 15 -14z m-453 -69 c-3 -3 -12 -4 -19 -1
-8 3 -5 6 6 6 11 1 17 -2 13 -5z m-361 -39 c-21 -7 -44 -19 -50 -26 -8 -9 -7
-10 8 -5 16 6 17 4 5 -10 -11 -14 -11 -18 6 -30 10 -8 14 -14 8 -14 -13 0 -29
19 -37 46 -5 16 1 24 26 37 18 8 42 16 53 16 11 0 3 -6 -19 -14z m719 -195
c-3 -5 -12 -10 -18 -10 -7 0 -6 4 3 10 19 12 23 12 15 0z m-190 -104 c-11 -7
-31 -16 -45 -20 -19 -5 -16 -2 10 13 40 23 65 28 35 7z m622 -332 c-3 -3 -12
-4 -19 -1 -8 3 -5 6 6 6 11 1 17 -2 13 -5z m-248 -118 c-13 -14 -26 -23 -28
-20 -6 6 30 44 42 44 5 0 -1 -11 -14 -24z m-1444 -506 c-21 -4 -55 -5 -75 -3
-111 15 -330 -150 -330 -248 0 -76 25 -76 76 -2 53 77 159 184 217 218 58 34
73 28 19 -8 -55 -36 -242 -270 -228 -284 3 -3 25 5 50 17 58 27 119 97 146
164 16 41 19 44 14 16 -19 -102 -131 -209 -220 -210 -10 0 -59 -59 -52 -65 1
-1 29 6 62 17 32 10 60 17 62 15 3 -2 -28 -15 -68 -28 -69 -22 -78 -28 -170
-124 -102 -107 -178 -159 -226 -153 -22 2 -28 8 -30 36 -3 27 4 39 46 80 52
51 140 102 210 123 33 9 51 24 79 61 l35 49 -21 23 c-43 46 -20 135 55 209 77
77 202 117 333 108 l56 -4 -40 -7z m465 -124 c0 -15 -21 -36 -36 -36 -19 0
-24 28 -8 44 16 16 44 11 44 -8z m-266 -73 c-10 -19 -8 -172 2 -182 6 -6 65
54 120 122 22 27 38 38 53 35 20 -3 15 -11 -44 -82 -92 -110 -100 -126 -62
-126 31 0 90 43 148 107 63 71 113 103 161 103 25 0 41 -5 44 -15 5 -12 9 -13
21 -3 15 12 53 19 53 9 -1 -3 -32 -44 -70 -91 -67 -81 -83 -110 -59 -110 34 0
102 60 191 170 61 75 90 101 72 64 -9 -19 -8 -174 2 -183 2 -3 22 13 44 34 22
22 40 34 40 28 0 -14 -67 -73 -82 -73 -7 0 -24 -12 -39 -26 -38 -36 -118 -45
-146 -17 -18 18 -22 18 -39 6 -10 -8 -32 -13 -49 -11 -23 2 -30 8 -29 24 0 22
0 22 -37 -3 -23 -15 -48 -23 -66 -21 -23 2 -28 8 -31 35 l-3 32 -51 -34 c-52
-37 -98 -45 -117 -21 -6 7 -9 21 -5 30 8 21 -20 12 -59 -20 -52 -44 -147 -43
-156 1 -6 33 -22 34 -64 4 -49 -35 -99 -39 -120 -8 -43 60 70 199 161 199 54
0 62 -58 17 -126 -22 -34 0 -40 38 -11 18 14 60 59 93 101 55 71 87 98 68 59z
m-1784 -85 c0 -74 25 -250 49 -349 96 -404 342 -768 686 -1015 192 -137 473
-252 719 -294 147 -25 391 -27 542 -5 556 83 1061 454 1304 960 94 196 152
407 170 621 5 66 10 122 10 127 0 4 7 7 15 7 33 0 11 -247 -40 -445 -159 -614
-654 -1107 -1268 -1265 -168 -43 -273 -55 -462 -54 -293 2 -526 59 -795 195
-510 258 -865 756 -944 1327 -21 149 -21 242 -1 242 11 0 15 -13 15 -52z
m1174 -347 c10 -11 16 -28 13 -38 -4 -16 -5 -15 -6 3 -1 23 -19 44 -38 44 -21
0 -17 -77 5 -83 13 -4 11 -5 -5 -6 -21 -1 -23 3 -23 49 0 42 3 50 18 50 11 0
27 -9 36 -19z m124 12 c-36 -5 -40 -42 -5 -44 l22 -2 -22 -4 c-32 -6 -29 -31
5 -36 25 -4 25 -4 -5 -6 l-33 -1 0 50 0 50 33 -1 c30 -2 30 -2 5 -6z m145 0
c-53 -10 -59 -73 -8 -84 28 -6 28 -7 5 -8 -32 -1 -50 16 -50 45 0 29 26 54 53
53 l22 -2 -22 -4z m171 -9 c19 -18 21 -55 4 -72 -7 -7 -23 -11 -37 -11 -24 1
-24 2 4 8 25 5 30 11 30 35 0 36 -27 56 -52 40 -12 -8 -17 -23 -16 -45 1 -23
-1 -28 -8 -18 -13 21 -11 40 8 61 20 22 46 23 67 2z m126 1 c10 -12 10 -18 0
-30 -14 -16 -40 -20 -40 -6 0 5 7 8 16 7 27 -2 28 23 2 33 -15 6 -17 10 -7 10
9 1 22 -6 29 -14z m146 -63 c-3 -3 -6 0 -6 6 0 20 -37 13 -54 -10 -16 -23 -16
-23 -4 5 6 15 19 27 29 27 13 0 16 5 12 16 -5 13 -7 13 -14 2 -10 -16 -12 -6
-2 18 5 13 10 9 25 -21 11 -20 17 -39 14 -43z m129 71 c-11 -3 -27 -10 -35
-17 -13 -10 -13 -9 -1 7 7 9 23 16 35 16 20 -1 20 -2 1 -6z m179 -15 c9 -12
16 -27 16 -33 -1 -5 -7 1 -15 15 -7 14 -24 28 -37 31 -22 7 -22 7 -1 8 12 1
29 -9 37 -21z m114 15 c-36 -5 -40 -42 -5 -44 l22 -2 -22 -4 c-32 -6 -29 -31
5 -36 25 -4 25 -4 -5 -6 l-33 -1 0 50 0 50 33 -1 c30 -2 30 -2 5 -6z m125 -3
c-30 -12 -29 -24 3 -39 16 -7 24 -18 22 -28 -4 -20 -35 -30 -50 -15 -6 6 0 8
16 5 19 -4 26 -1 26 11 0 9 -4 16 -8 16 -5 0 -17 6 -27 14 -16 12 -17 16 -6
30 7 9 21 16 30 15 11 0 9 -3 -6 -9z m-310 -15 c-3 -9 -8 -14 -10 -11 -3 3 -2
9 2 15 9 16 15 13 8 -4z m-108 -66 c17 -4 24 -7 18 -8 -7 0 -12 -6 -10 -12 1
-6 -5 -14 -13 -16 -11 -3 -12 -2 -2 4 9 7 4 15 -18 31 -16 13 -30 30 -30 40 0
12 4 10 13 -8 7 -15 25 -28 42 -31z m139 1 c12 0 28 6 36 13 12 10 12 9 0 -6
-18 -25 -59 -18 -78 13 l-14 25 17 -22 c10 -13 27 -23 39 -23z m-410 4 c3 -8
2 -12 -4 -9 -6 3 -10 10 -10 16 0 14 7 11 14 -7z"/>
<path d="M2710 4105 c0 -22 66 -88 80 -80 15 9 -3 37 -45 69 -28 22 -35 24
-35 11z m76 -66 c3 -6 -5 -3 -20 6 -14 10 -26 19 -26 22 0 7 39 -17 46 -28z"/>
<path d="M3475 4086 c-16 -24 -13 -90 5 -101 7 -4 23 31 21 47 0 4 3 18 9 32
6 18 5 28 -5 36 -11 9 -17 6 -30 -14z"/>
<path d="M2580 4073 c0 -5 16 -24 35 -43 19 -19 35 -31 35 -27 0 4 10 2 22 -4
22 -12 22 -12 7 12 -17 25 -99 77 -99 62z m60 -48 c14 -19 14 -19 -2 -6 -10 7
-18 18 -18 24 0 6 1 8 3 6 1 -2 9 -13 17 -24z"/>
<path d="M2425 4036 c19 -28 37 -37 83 -41 28 -3 31 -1 21 11 -15 19 -54 39
-92 48 -28 7 -28 6 -12 -18z m70 -26 c3 -6 -1 -7 -9 -4 -18 7 -21 14 -7 14 6
0 13 -4 16 -10z"/>
<path d="M3315 3950 c20 -21 38 -30 62 -30 22 0 43 -10 68 -31 23 -21 35 -26
35 -16 0 44 -92 106 -159 107 l-35 0 29 -30z"/>
<path d="M2650 3945 c-7 -8 -17 -12 -22 -9 -10 7 -45 -21 -60 -49 -9 -17 -7
-17 29 1 40 21 80 58 71 67 -3 3 -11 -1 -18 -10z"/>
<path d="M2713 3928 c-27 -30 -49 -68 -38 -68 23 0 76 39 84 61 8 24 7 27 -6
22 -11 -4 -14 -2 -9 5 13 21 1 13 -31 -20z m17 -9 c-7 -11 -14 -18 -17 -15 -3
3 0 12 7 21 18 21 23 19 10 -6z"/>
<path d="M3026 3953 c7 -4 14 -17 17 -28 5 -16 5 -15 4 4 -1 14 -9 26 -17 28
-10 3 -11 2 -4 -4z"/>
<path d="M2355 3935 l-30 -13 38 1 c21 0 33 4 26 8 -8 5 -6 9 7 12 11 3 13 5
4 5 -8 1 -28 -5 -45 -13z"/>
<path d="M3010 3930 c0 -5 5 -10 10 -10 6 0 10 5 10 10 0 6 -4 10 -10 10 -5 0
-10 -4 -10 -10z"/>
<path d="M3027 3899 c7 -7 15 -10 18 -7 3 3 -2 9 -12 12 -14 6 -15 5 -6 -5z"/>
<path d="M3580 3907 c0 -14 78 -87 94 -87 10 0 31 -14 47 -31 34 -36 47 -32
30 8 -22 53 -55 85 -96 93 -22 4 -48 11 -57 15 -10 4 -18 5 -18 2z"/>
<path d="M3030 3850 c-8 -15 -24 -44 -34 -64 -15 -28 -18 -42 -10 -63 12 -34
44 -54 52 -33 3 8 23 32 45 53 36 36 39 41 27 62 -7 14 -17 22 -21 20 -4 -3
-11 5 -15 17 -7 22 -8 21 -20 -12 -7 -19 -13 -46 -13 -59 -1 -13 -4 -21 -8
-18 -3 4 0 32 7 62 15 63 12 75 -10 35z"/>
<path d="M3130 3850 c19 -17 44 -36 55 -42 16 -9 15 -6 -5 17 -14 15 -38 33
-55 41 -30 15 -30 15 5 -16z"/>
<path d="M3081 3854 c0 -11 3 -14 6 -6 3 7 2 16 -1 19 -3 4 -6 -2 -5 -13z"/>
<path d="M3124 3798 c8 -23 16 -28 42 -28 18 0 41 -3 51 -6 10 -3 2 4 -17 16
-19 12 -38 27 -42 33 -3 6 -15 11 -26 12 -17 1 -18 -2 -8 -27z"/>
<path d="M3206 3818 c24 -40 60 -79 94 -102 57 -37 59 -32 8 22 -25 27 -51 58
-57 70 -6 12 -21 22 -32 22 -13 0 -18 -4 -13 -12z"/>
<path d="M2957 3678 c-9 -7 -22 -32 -30 -55 -13 -37 -13 -43 0 -43 27 0 92 40
98 61 11 33 -5 37 -27 6 -11 -15 -30 -32 -41 -38 -16 -8 -12 -1 12 24 40 43
32 77 -12 45z"/>
<path d="M3845 3671 c-22 -10 -48 -28 -58 -39 -18 -20 -18 -21 0 -46 10 -14
22 -26 26 -26 4 0 30 20 56 45 54 51 79 62 32 14 -17 -17 -31 -34 -31 -39 0
-4 -15 -15 -32 -24 l-33 -16 34 0 c28 0 43 10 97 65 35 36 69 65 76 66 7 0 4
4 -7 9 -35 15 -118 10 -160 -9z"/>
<path d="M2754 3661 c-46 -28 -51 -42 -15 -39 17 1 31 6 31 10 0 4 8 8 18 8
11 0 27 9 37 20 18 20 17 20 -11 20 -16 0 -43 -9 -60 -19z"/>
<path d="M3461 3667 c-1 -4 6 -21 14 -37 14 -27 13 -30 -5 -43 -23 -16 -17
-27 15 -27 23 0 27 14 18 63 -2 15 -11 27 -18 27 -7 0 -16 6 -18 13 -3 6 -6 8
-6 4z"/>
<path d="M3600 3613 c-60 -4 -79 -15 -63 -35 5 -7 10 -23 11 -36 1 -20 -1 -22
-15 -10 -14 11 -15 11 -5 -7 5 -11 16 -34 22 -51 6 -18 26 -46 43 -64 20 -21
25 -29 12 -22 -25 13 -47 38 -69 77 -10 17 -15 21 -11 11 3 -11 8 -45 12 -77
4 -45 2 -64 -11 -83 -24 -37 -20 -53 16 -72 25 -13 49 -15 111 -11 99 7 129
27 42 27 -33 1 -73 7 -90 15 l-30 15 33 -6 c54 -9 142 -11 142 -3 0 4 -15 10
-32 12 l-33 4 33 1 c23 2 32 7 32 20 0 24 -12 39 -35 45 -17 4 -16 5 4 6 23 1
24 2 6 14 -16 13 -15 14 13 9 35 -5 47 11 67 90 15 56 10 64 -56 78 l-44 9 42
-2 c33 -2 39 0 31 10 -10 12 -105 45 -117 41 -3 -1 -31 -3 -61 -5z m-21 -77
c7 -8 23 -17 38 -21 14 -3 23 -8 20 -11 -6 -7 -75 24 -83 37 -9 15 13 10 25
-5z m56 -94 c11 -6 15 -12 8 -12 -16 0 -71 48 -84 74 -6 12 4 6 23 -15 18 -20
42 -41 53 -47z m82 42 c-3 -3 -12 -4 -19 -1 -8 3 -5 6 6 6 11 1 17 -2 13 -5z"/>
<path d="M3420 3580 c-9 -6 -10 -10 -3 -10 6 0 15 5 18 10 8 12 4 12 -15 0z"/>
<path d="M3915 3560 c-24 -27 -15 -34 29 -22 44 13 38 -4 -7 -18 l-32 -10 35
4 c19 3 58 11 85 19 l50 15 -37 16 c-52 22 -101 21 -123 -4z"/>
<path d="M3772 3384 l-22 -21 21 -27 c27 -35 41 -22 31 29 l-7 40 -23 -21z
m28 -59 c0 -5 -5 -3 -10 5 -5 8 -10 20 -10 25 0 6 5 3 10 -5 5 -8 10 -19 10
-25z"/>
<path d="M3803 3283 c-25 -3 -33 -9 -33 -24 0 -10 5 -19 10 -19 6 0 10 7 10
15 0 25 26 17 39 -12 10 -23 14 -25 21 -12 9 16 2 60 -9 57 -3 0 -21 -3 -38
-5z"/>
<path d="M4061 3101 c-11 -7 -9 -11 10 -21 12 -7 34 -16 48 -21 l26 -7 -26 -1
c-14 -1 -43 10 -64 24 -20 15 -39 24 -41 22 -8 -8 40 -50 72 -63 38 -16 114
-19 114 -5 0 5 -19 26 -42 45 -41 36 -70 44 -97 27z"/>
<path d="M4000 2871 c-12 -37 -6 -121 7 -107 6 6 15 146 10 146 -2 0 -10 -18
-17 -39z"/>
<path d="M4031 2852 c-16 -62 -9 -77 14 -32 12 23 14 39 7 58 -8 25 -9 24 -21
-26z"/>
<path d="M4110 2883 c0 -9 32 -55 79 -113 l21 -25 0 23 c0 30 -27 87 -48 104
-14 10 -15 10 -4 -2 25 -29 11 -33 -18 -5 -16 16 -30 24 -30 18z m80 -64 c0
-6 -4 -7 -10 -4 -5 3 -10 11 -10 16 0 6 5 7 10 4 6 -3 10 -11 10 -16z"/>
<path d="M1754 2154 c-72 -38 -169 -109 -187 -138 -37 -56 -3 -75 63 -35 57
35 207 199 182 199 -5 0 -31 -12 -58 -26z"/>
<path d="M2220 2351 c-74 -74 -100 -151 -50 -151 24 0 83 41 96 68 6 12 19 30
28 41 23 25 18 84 -6 89 -11 2 -38 -17 -68 -47z"/>
<path d="M2829 2367 c-56 -42 -109 -112 -109 -143 0 -13 5 -24 10 -24 46 0
180 135 180 181 0 29 -33 23 -81 -14z"/>
<path d="M2405 2333 c-27 -31 -50 -64 -50 -73 0 -8 -9 -15 -20 -15 -30 0 -27
-39 4 -43 37 -6 67 6 85 33 17 25 40 127 34 146 -2 6 -26 -16 -53 -48z"/>
<path d="M3037 2331 c-26 -33 -47 -64 -47 -70 0 -7 -12 -16 -26 -21 -49 -19
-6 -50 51 -36 32 8 55 48 66 118 5 33 8 62 6 64 -2 2 -25 -22 -50 -55z"/>
</g>
</svg>
